HIERARCHY
ROOT Hips
{
    OFFSET 0.000000 0.000000 0.000000
    CHANNELS 6 Xposition Yposition Zposition Zrotation Xrotation Yrotation
    JOINT Spine
    {
        OFFSET -0.000000 8.603107 0.000000
        CHANNELS 3 Zrotation Xrotation Yrotation
        JOINT Spine1
        {
            OFFSET -0.000000 23.906662 0.000000
            CHANNELS 3 Zrotation Xrotation Yrotation
            JOINT Neck
            {
                OFFSET -0.000000 23.808481 2.164407
                CHANNELS 3 Zrotation Xrotation Yrotation
                JOINT Head
                {
                    OFFSET -0.000000 14.688231 -2.098319
                    CHANNELS 3 Zrotation Xrotation Yrotation
                    End Site
                    {
                        OFFSET -0.000000 26.228985 0.000000
                    }
                }
            }
            JOINT LeftShoulder
            {
                OFFSET 4.178941 22.658146 -0.129871
                CHANNELS 3 Zrotation Xrotation Yrotation
                JOINT LeftArm
                {
                    OFFSET 9.497952 0.000000 0.000000
                    CHANNELS 3 Zrotation Xrotation Yrotation
                    JOINT LeftForeArm
                    {
                        OFFSET 38.855015 0.000000 0.000000
                        CHANNELS 3 Zrotation Xrotation Yrotation
                        JOINT LeftHand
                        {
                            OFFSET 24.940550 0.000000 0.000000
                            CHANNELS 3 Zrotation Xrotation Yrotation
                            End Site
                            {
                                OFFSET 15.737392 0.000000 0.000000
                            }
                        }
                    }
                }
            }
            JOINT RightShoulder
            {
                OFFSET -4.145384 22.658146 -0.129871
                CHANNELS 3 Zrotation Xrotation Yrotation
                JOINT RightArm
                {
                    OFFSET -9.497952 0.000000 0.000000
                    CHANNELS 3 Zrotation Xrotation Yrotation
                    JOINT RightForeArm
                    {
                        OFFSET -38.855015 0.000000 0.000000
                        CHANNELS 3 Zrotation Xrotation Yrotation
                        JOINT RightHand
                        {
                            OFFSET -24.940550 0.000000 0.000000
                            CHANNELS 3 Zrotation Xrotation Yrotation
                            End Site
                            {
                                OFFSET -15.737392 0.000000 0.000000
                            }
                        }
                    }
                }
            }
        }
    }
    JOINT LeftUpLeg
    {
        OFFSET 10.491594 0.000000 0.000000
        CHANNELS 3 Zrotation Xrotation Yrotation
        JOINT LeftLeg
        {
            OFFSET -0.000000 -46.080647 0.000000
            CHANNELS 3 Zrotation Xrotation Yrotation
            JOINT LeftFoot
            {
                OFFSET -0.000000 -50.184704 0.000000
                CHANNELS 3 Zrotation Xrotation Yrotation
                JOINT LeftToeBase
                {
                    OFFSET -0.000000 -6.819536 15.737392
                    CHANNELS 3 Zrotation Xrotation Yrotation
                    End Site
                    {
                        OFFSET -0.000000 0.000000 4.196638
                    }
                }
            }
        }
    }
    JOINT RightUpLeg
    {
        OFFSET -10.491594 0.000000 0.000000
        CHANNELS 3 Zrotation Xrotation Yrotation
        JOINT RightLeg
        {
            OFFSET -0.000000 -46.080647 0.000000
            CHANNELS 3 Zrotation Xrotation Yrotation
            JOINT RightFoot
            {
                OFFSET -0.000000 -50.184704 0.000000
                CHANNELS 3 Zrotation Xrotation Yrotation
                JOINT RightToeBase
                {
                    OFFSET -0.000000 -6.819536 15.737392
                    CHANNELS 3 Zrotation Xrotation Yrotation
                    End Site
                    {
                        OFFSET -0.000000 0.000000 4.196638
                    }
                }
            }
        }
    }
}
MOTION
Frames:    9
Frame Time:    0.008333
9.870548    39.584911    48.058449    -72.176605    -1.104269    87.518982    4.385229    5.993696    2.821549    -2.465244    5.756160    3.175167    9.905920    13.361821    2.250528    -4.981236    -13.047282    0.809936    4.365535    2.903714    -16.382063    -8.919044    13.939228    -18.970919    24.553942    -14.377184    -61.180447    56.207111    0.406640    0.213426    -1.256548    2.535347    -1.163215    -0.388836    16.773247    37.947662    -27.317471    -10.641105    45.963085    -69.174316    4.096392    -4.276127    -1.121497    1.797783    -17.057667    -1.986444    3.051393    6.845227    0.000000    0.000000    0.000000    0.000000    0.000000    0.000000    -0.163863    4.687520    2.738410    1.296831    0.837699    0.125450    24.215866    -4.818479    3.360394    0.000000    0.000000    0.000000    
10.101837    38.718910    48.065681    -72.647888    -1.140107    87.475990    4.141255    5.699417    2.989300    -1.975254    6.107660    3.300920    9.727316    12.959645    2.151188    -4.961903    -13.090622    0.677997    4.254426    2.918252    -16.032755    -9.156204    14.513266    -17.815571    25.858612    -15.980473    -63.421440    56.082050    0.781726    1.144804    -1.690771    2.373534    -2.266356    0.117265    16.978765    37.297188    -28.898010    -11.450507    48.440487    -68.775192    5.434686    -5.295020    -1.121497    1.797783    -17.057667    -1.986444    3.051393    6.845227    0.000000    0.000000    0.000000    0.000000    0.000000    0.000000    -0.095233    4.796451    2.869473    1.205663    0.742543    0.070325    24.348949    -4.866421    3.441150    0.000000    0.000000    0.000000    
10.306211    37.861221    48.044739    -73.274826    -1.144088    87.461853    3.933403    5.104396    3.113518    -1.475029    6.742294    3.375788    9.538940    12.485624    2.140737    -5.222661    -13.300724    0.555434    4.088094    2.775885    -15.453966    -9.331913    14.643073    -16.850363    26.561871    -16.907948    -65.869278    56.479313    1.524799    1.908374    -2.170480    2.394786    -3.235192    0.473976    16.845377    36.521904    -30.007341    -12.597357    51.346970    -68.311050    6.532922    -6.476454    -1.121497    1.797783    -17.057667    -1.986444    3.051393    6.845227    0.000000    0.000000    0.000000    0.000000    0.000000    0.000000    -0.106562    4.713847    2.904298    1.200766    0.700081    0.023771    24.296858    -4.962486    3.634704    0.000000    0.000000    0.000000    
10.507008    36.977188    48.004265    -73.921051    -1.085619    87.490234    3.593992    4.284168    3.330714    -0.868480    7.742981    3.523955    9.412803    11.839148    2.057823    -5.505487    -13.593518    0.331209    4.170472    2.396949    -15.037708    -9.773029    15.111721    -16.077244    27.523724    -18.297606    -68.000694    56.626133    2.159823    3.103511    -2.669135    2.249665    -4.570223    0.444143    17.138124    35.915558    -31.302677    -14.040960    53.898830    -67.823814    7.592602    -7.959826    -1.121497    1.797783    -17.057667    -1.986444    3.051393    6.845227    0.000000    0.000000    0.000000    0.000000    0.000000    0.000000    -0.201802    4.634376    2.872732    1.223570    0.677128    0.190540    24.460859    -5.257985    3.643702    0.000000    0.000000    0.000000    
10.696151    36.069820    47.954819    -74.625999    -1.001527    87.545448    3.342474    3.479047    3.403285    -0.320780    8.495255    3.528647    8.982973    11.708140    2.060750    -5.579830    -14.372005    0.285534    4.132824    2.242635    -14.456334    -10.250704    14.800261    -15.032635    27.575527    -18.920929    -70.790642    57.183929    2.948700    3.738801    -3.358453    2.171635    -5.448597    0.736668    17.498880    35.108017    -32.461765    -15.698796    56.442482    -67.520340    8.205718    -9.071171    -1.121497    1.797783    -17.057667    -1.986444    3.051393    6.845227    0.000000    0.000000    0.000000    0.000000    0.000000    0.000000    -0.330999    4.478433    2.796089    1.268421    0.677336    -0.034691    24.600708    -5.422823    4.076592    0.000000    0.000000    0.000000    
10.932392    35.145412    47.978775    -75.160843    -1.081186    87.555229    3.076138    2.780518    3.550415    0.385902    9.283286    3.593750    9.033512    11.251745    1.941067    -6.248456    -14.287128    -0.051953    4.178276    2.273751    -14.003086    -10.789950    14.706500    -14.130771    28.052389    -20.025066    -73.024757    57.575333    3.333528    4.262661    -3.986872    2.254051    -6.451025    0.966576    17.687180    34.266335    -33.719921    -16.747255    59.002552    -67.333748    9.847136    -10.528231    -1.121497    1.797783    -17.057667    -1.986444    3.051393    6.845227    0.000000    0.000000    0.000000    0.000000    0.000000    0.000000    -0.220546    4.513192    2.861752    1.240241    0.692546    -0.142956    24.784655    -5.445104    4.135049    0.000000    0.000000    0.000000    
11.135604    34.230011    47.966240    -75.681442    -1.089915    87.653748    2.874161    1.939696    3.552624    1.019651    10.314803    3.509254    8.381523    10.831834    1.930362    -5.854374    -14.455978    0.030842    4.245513    2.182431    -13.370547    -11.428452    14.572506    -13.233568    28.759815    -20.862810    -74.928665    57.249977    4.135484    4.886507    -4.892339    2.363576    -7.325219    1.486488    17.601393    33.552280    -34.692020    -17.839968    61.466812    -66.650627    11.103916    -11.771635    -1.121497    1.797783    -17.057667    -1.986444    3.051393    6.845227    0.000000    0.000000    0.000000    0.000000    0.000000    0.000000    -0.224789    4.547315    2.785387    1.268801    0.724377    -0.153709    24.747139    -5.613373    4.249371    0.000000    0.000000    0.000000    
11.345189    33.287846    47.978065    -76.155991    -1.137506    87.728668    2.644295    1.165924    3.614023    1.652954    11.276879    3.477735    8.372553    10.890236    1.825814    -6.473094    -15.284776    -0.282320    4.506930    2.129165    -12.924671    -12.133591    13.656052    -12.076099    28.162592    -20.988636    -78.061890    57.746040    5.145203    5.429414    -5.641718    2.480131    -8.351219    1.961818    17.491772    32.787964    -35.336281    -18.876722    64.095024    -66.587219    12.266279    -12.757344    -1.121497    1.797783    -17.057667    -1.986444    3.051393    6.845227    0.000000    0.000000    0.000000    0.000000    0.000000    0.000000    -0.151160    4.593108    2.773292    1.253898    0.847467    -0.076721    24.827112    -5.898592    4.227045    0.000000    0.000000    0.000000    
11.541148    32.355911    47.971146    -76.551414    -1.109002    87.840996    2.400989    0.343775    3.664823    2.171038    12.532842    3.433602    7.557486    10.435824    1.697223    -5.327373    -15.593032    -0.108340    4.870480    1.919471    -12.286759    -12.748778    12.826932    -11.022474    27.543648    -21.040977    -81.162827    58.082138    6.114754    5.825046    -6.448322    2.382818    -9.561372    2.487747    17.439285    32.222031    -35.779377    -19.898273    66.590523    -66.769394    13.277822    -13.627080    -1.121497    1.797783    -17.057667    -1.986444    3.051393    6.845227    0.000000    0.000000    0.000000    0.000000    0.000000    0.000000    -0.198361    4.704934    2.678030    1.298865    0.956128    0.002812    24.956726    -6.239625    4.294590    0.000000    0.000000    0.000000    
